<mxfile host="app.diagrams.net" agent="Mozilla/5.0 (Windows NT 10.0; Win64; x64) AppleWebKit/537.36 (KHTML, like Gecko) Chrome/140.0.0.0 Safari/537.36" version="28.2.5">
  <diagram name="Page-1" id="RahOJFnQkHqupawmUpDo">
    <mxGraphModel dx="1489" dy="729" grid="1" gridSize="10" guides="1" tooltips="1" connect="1" arrows="1" fold="1" page="1" pageScale="1" pageWidth="850" pageHeight="1100" math="0" shadow="0">
      <root>
        <mxCell id="0" />
        <mxCell id="1" parent="0" />
        <mxCell id="gBus9bAj6bdQFgC0hFfi-1" value="plan" style="ellipse;whiteSpace=wrap;html=1;aspect=fixed;fillColor=light-dark(#0050EF,#FFFFFF);fontColor=#ffffff;strokeColor=#001DBC;" vertex="1" parent="1">
          <mxGeometry x="320" y="10" width="80" height="80" as="geometry" />
        </mxCell>
        <mxCell id="gBus9bAj6bdQFgC0hFfi-2" value="" style="endArrow=none;dashed=1;html=1;dashPattern=1 3;strokeWidth=2;rounded=0;" edge="1" parent="1">
          <mxGeometry width="50" height="50" relative="1" as="geometry">
            <mxPoint x="359.17" y="130" as="sourcePoint" />
            <mxPoint x="359.17" y="90" as="targetPoint" />
          </mxGeometry>
        </mxCell>
        <mxCell id="gBus9bAj6bdQFgC0hFfi-4" value="" style="endArrow=none;dashed=1;html=1;rounded=0;" edge="1" parent="1">
          <mxGeometry width="50" height="50" relative="1" as="geometry">
            <mxPoint x="359.17" y="250" as="sourcePoint" />
            <mxPoint x="359.17" y="210" as="targetPoint" />
          </mxGeometry>
        </mxCell>
        <mxCell id="gBus9bAj6bdQFgC0hFfi-6" value="" style="endArrow=none;dashed=1;html=1;rounded=0;" edge="1" parent="1">
          <mxGeometry width="50" height="50" relative="1" as="geometry">
            <mxPoint x="360" y="390" as="sourcePoint" />
            <mxPoint x="359.17" y="340" as="targetPoint" />
          </mxGeometry>
        </mxCell>
        <mxCell id="gBus9bAj6bdQFgC0hFfi-7" value="test" style="ellipse;whiteSpace=wrap;html=1;aspect=fixed;" vertex="1" parent="1">
          <mxGeometry x="320" y="400" width="80" height="80" as="geometry" />
        </mxCell>
        <mxCell id="gBus9bAj6bdQFgC0hFfi-10" value="" style="endArrow=none;dashed=1;html=1;rounded=0;entryX=0.5;entryY=1;entryDx=0;entryDy=0;" edge="1" parent="1" target="gBus9bAj6bdQFgC0hFfi-7">
          <mxGeometry width="50" height="50" relative="1" as="geometry">
            <mxPoint x="360" y="530" as="sourcePoint" />
            <mxPoint x="360" y="500" as="targetPoint" />
          </mxGeometry>
        </mxCell>
        <mxCell id="gBus9bAj6bdQFgC0hFfi-11" value="release" style="ellipse;whiteSpace=wrap;html=1;aspect=fixed;" vertex="1" parent="1">
          <mxGeometry x="320" y="530" width="80" height="80" as="geometry" />
        </mxCell>
        <mxCell id="gBus9bAj6bdQFgC0hFfi-12" value="deploy" style="ellipse;whiteSpace=wrap;html=1;aspect=fixed;" vertex="1" parent="1">
          <mxGeometry x="320" y="680" width="80" height="80" as="geometry" />
        </mxCell>
        <mxCell id="gBus9bAj6bdQFgC0hFfi-13" value="operate" style="ellipse;whiteSpace=wrap;html=1;aspect=fixed;" vertex="1" parent="1">
          <mxGeometry x="320" y="820" width="80" height="80" as="geometry" />
        </mxCell>
        <mxCell id="gBus9bAj6bdQFgC0hFfi-15" value="" style="endArrow=none;dashed=1;html=1;rounded=0;" edge="1" parent="1">
          <mxGeometry width="50" height="50" relative="1" as="geometry">
            <mxPoint x="360" y="670" as="sourcePoint" />
            <mxPoint x="360" y="610" as="targetPoint" />
          </mxGeometry>
        </mxCell>
        <mxCell id="gBus9bAj6bdQFgC0hFfi-16" value="" style="endArrow=none;dashed=1;html=1;rounded=0;exitX=0.5;exitY=0;exitDx=0;exitDy=0;" edge="1" parent="1" source="gBus9bAj6bdQFgC0hFfi-13">
          <mxGeometry width="50" height="50" relative="1" as="geometry">
            <mxPoint x="310" y="810" as="sourcePoint" />
            <mxPoint x="360" y="760" as="targetPoint" />
          </mxGeometry>
        </mxCell>
        <mxCell id="gBus9bAj6bdQFgC0hFfi-19" value="" style="endArrow=none;dashed=1;html=1;rounded=0;" edge="1" parent="1">
          <mxGeometry width="50" height="50" relative="1" as="geometry">
            <mxPoint x="360" y="950" as="sourcePoint" />
            <mxPoint x="360" y="900" as="targetPoint" />
          </mxGeometry>
        </mxCell>
        <mxCell id="gBus9bAj6bdQFgC0hFfi-20" value="monitor" style="ellipse;whiteSpace=wrap;html=1;aspect=fixed;" vertex="1" parent="1">
          <mxGeometry x="320" y="960" width="80" height="80" as="geometry" />
        </mxCell>
        <mxCell id="gBus9bAj6bdQFgC0hFfi-22" value="code" style="ellipse;whiteSpace=wrap;html=1;aspect=fixed;" vertex="1" parent="1">
          <mxGeometry x="320" y="130" width="80" height="80" as="geometry" />
        </mxCell>
        <mxCell id="gBus9bAj6bdQFgC0hFfi-23" value="build" style="ellipse;whiteSpace=wrap;html=1;aspect=fixed;" vertex="1" parent="1">
          <mxGeometry x="320" y="250" width="80" height="80" as="geometry" />
        </mxCell>
      </root>
    </mxGraphModel>
  </diagram>
</mxfile>
